<?xml version="1.0" encoding="UTF-8"?>
<!DOCTYPE svg PUBLIC "-//W3C//DTD SVG 1.1//EN" "http://www.w3.org/Graphics/SVG/1.1/DTD/svg11.dtd">
<svg xmlns="http://www.w3.org/2000/svg" xmlns:xlink="http://www.w3.org/1999/xlink" style="display:none">
<symbol id="logo" fill="currentColor" viewBox="0 0 100 47" aria-hidden="true">
<path d="M 17.611835,0 14.532054,12.309534 H 3.6891543 v 6.810237 h 9.0786617 l -2.245628,8.76046 H 0 v 6.87412 H 8.9502483 L 5.8706832,47 h 7.1537458 l 3.079565,-12.245649 h 8.469073 L 21.493502,47 h 7.089646 l 2.55322,-10.152434 c 0.30773,1.27643 0.821531,2.466389 1.543761,3.568798 1.258424,1.920853 3.111604,3.424563 5.559436,4.511216 2.447098,1.084459 5.099406,1.626723 7.956923,1.626723 4.875108,0 8.810905,-1.164594 11.807187,-3.493765 a 11.651799,11.612925 0 0 0 3.094622,-3.545216 22.466608,22.391652 0 0 0 4.209047,3.301464 1.3579082,1.3533778 0 0 0 2.284131,1.253701 l 0.0299,-0.02872 a 22.246347,22.172126 0 0 0 2.241112,0.885821 1.4316956,1.426919 0 0 0 2.437065,1.024098 1.3623134,1.3577683 0 0 0 0.236823,-0.311709 22.408238,22.333476 0 0 0 8.639646,0.03409 1.6585643,1.6530308 0 0 0 3.136567,-0.837586 22.380706,22.306036 0 0 0 14.919447,-23.546307 1.3413886,1.3369133 0 0 0 0.377712,-2.151312 1.339186,1.334718 0 1 0 -1.160671,2.261075 21.620806,21.548672 0 0 1 -14.36987,22.683639 1.7059203,1.7002288 0 0 0 -0.251235,-0.320499 1.6596656,1.6541284 0 0 0 -0.356633,-0.270121 19.960039,19.893445 0 0 0 0.550652,-3.97998 18.722173,18.659709 0 0 0 -0.206064,-3.512415 1.9570177,1.9504884 0 0 0 0.621204,-0.419331 2.0010699,1.9943936 0 0 0 0.452568,-0.695879 28.838754,28.742538 0 0 1 5.377676,1.569696 1.3524017,1.3478896 0 1 0 0.387609,-0.803499 0.81496518,0.81224618 0 0 0 -0.0727,0.07911 29.896006,29.796263 0 0 0 -5.565888,-1.622435 1.9548151,1.9482932 0 0 0 -0.182835,-0.75955 30.9885,30.885112 0 0 0 7.580287,-8.74481 c 1.951511,-3.370821 3.251041,-7.122529 3.653017,-11.01253 a 1.3590095,1.3544754 0 1 0 -1.253379,-0.363161 1.3457938,1.3413038 0 0 0 0.46698,0.302921 c -0.390963,3.767065 -1.651983,7.405657 -3.550632,10.676595 a 30.175738,30.075061 0 0 1 -7.365402,8.508775 1.9823477,1.9757339 0 0 0 -2.732396,0.06817 2.0076777,2.0009794 0 0 0 -0.484617,0.788063 c -0.346911,-0.02963 -0.699148,-0.05372 -1.053768,-0.07568 -3.532249,-0.201964 -7.386814,0.02322 -11.563695,0.675943 -0.02753,-0.08342 -0.05623,-0.165742 -0.08927,-0.246968 a 61.860262,61.653875 0 0 0 7.737739,-5.51216 70.159691,69.925614 0 0 0 8.199124,-8.105954 1.6772864,1.6716904 0 1 0 -0.602276,-0.505081 69.555075,69.323015 0 0 1 -8.104481,8.012698 61.390005,61.185187 0 0 1 -7.619004,5.427909 2.7466529,2.7374891 0 0 0 -0.280704,-0.319426 3.0902598,3.0799496 0 0 0 -0.348028,-0.300777 62.434042,62.225741 0 0 1 7.462411,-9.872024 1.9438021,1.9373169 0 0 0 2.64313,-2.713419 c 4.136499,-4.01513 8.78834,-7.546231 13.750817,-10.5910568 l 0.01119,0.00879 A 1.6905021,1.684862 0 1 0 90.874167,8.775037 C 85.852219,11.8484 81.148488,15.422268 76.963531,19.486791 a 1.9151682,1.9087785 0 0 0 -1.05936,-0.316212 25.838801,25.752594 0 0 0 -2.260899,-6.013812 l 0.08475,-0.08018 a 1.9647269,1.9581719 0 0 0 0.377712,-2.247998 29.301302,29.203543 0 0 1 5.896495,-3.2928896 c 0.03414,0.040612 0.07048,0.082468 0.110131,0.1219826 a 1.3601108,1.355573 0 1 0 -0.396642,-0.856237 30.116267,30.015789 0 0 0 -6.092234,3.402653 1.9625242,1.9559765 0 0 0 -2.05075,-0.3215715 27.584369,27.492338 0 0 0 -4.322619,-4.568456 1.4316956,1.426919 0 0 0 0.0826,-0.8658841 c 0.625539,-0.3095277 1.264338,-0.5875511 1.91631,-0.834152 A 21.609793,21.537695 0 0 1 82.553941,2.9256555 1.3127547,1.3083749 0 1 0 82.938107,1.9806647 1.4173786,1.4126497 0 0 0 82.781731,2.1804676 22.401631,22.326891 0 0 0 68.965954,2.8872814 C 68.285348,3.146322 67.613501,3.4360963 66.958225,3.7653853 L 66.945105,3.74995 A 1.4316956,1.426919 0 0 0 64.549767,5.1440685 22.246347,22.172126 0 0 0 60.513444,8.5730903 10.792782,10.756774 0 0 0 57.650053,5.1539301 C 54.872563,2.9433033 51.054709,1.8384416 46.196488,1.8391732 c -2.368565,0 -4.566826,0.3823835 -6.594919,1.1467233 L 40.35635,0 H 33.266703 L 30.155088,12.309534 H 21.686015 L 24.76558,0 Z m 56.545522,3.8552108 a 1.3127547,1.3083749 0 0 0 -0.933743,0.3822412 1.3116534,1.3072773 0 1 0 1.854579,0 1.3127547,1.3083749 0 0 0 -0.920836,-0.3822412 z m -9.190298,1.960513 a 1.4316956,1.426919 0 0 0 1.786393,0.109763 26.893851,26.804124 0 0 1 4.168394,4.4014532 1.9680308,1.9614648 0 0 0 -0.292965,2.333749 c -0.183918,0.170134 -0.364498,0.341253 -0.542909,0.516874 -2.525288,2.464179 -4.600156,5.33346 -6.038459,8.421093 a 2.312739,2.3050229 0 0 0 -1.330384,0.09754 18.208965,18.148214 0 0 0 -2.274237,-2.681475 9.0736461,9.0433733 0 0 0 1.367811,-4.748322 c 0,-1.825359 -0.314783,-3.464129 -0.934818,-4.9206842 a 21.475434,21.403785 0 0 1 4.091174,-3.529995 z m 20.85681,0.2958456 a 1.3116534,1.3072773 0 0 0 -0.932021,0.3824553 1.3116534,1.3072773 0 0 0 0,1.8496781 1.3116534,1.3072773 0 1 0 0.932021,-2.2321334 z M 46.553337,9.6070492 c 1.637272,0 2.905694,0.4528348 3.805092,1.3587458 0.899399,0.90591 1.349098,2.076716 1.349098,3.512416 0,3.683646 -1.888184,5.525452 -5.664188,5.525452 h -4.763141 v 7.496899 h 4.915215 c 1.938296,0 3.456558,0.458026 4.554925,1.37418 1.098369,0.916156 1.649021,2.469432 1.651957,4.659568 0,1.536681 -0.529352,2.796362 -1.588072,3.779106 -1.05872,0.982745 -2.477054,1.475104 -4.255293,1.477299 -1.579271,0 -2.908307,-0.487722 -3.986851,-1.463149 -0.830317,-0.750934 -1.3406,-1.608907 -1.533437,-2.573215 h 1.402872 v -6.87412 h -9.110711 l 2.213578,-8.76046 H 46.130669 V 12.309534 H 41.84354 c 0.241007,-0.575637 0.646,-1.088589 1.217458,-1.537968 0.988236,-0.7771225 2.152419,-1.1652486 3.492339,-1.1645168 z M 63.73519,11.882702 a 1.3116534,1.3072773 0 0 0 -0.917826,2.231061 1.3105521,1.3061796 0 0 0 1.855655,0 1.3116534,1.3072773 0 0 0 -0.937829,-2.231061 z m 7.41466,1.369465 a 1.9735373,1.9669529 0 0 0 1.808763,0.29949 25.164803,25.080845 0 0 1 2.173571,5.777135 1.9052564,1.8988998 0 0 0 -0.604643,0.40711 1.9415995,1.9351217 0 0 0 -0.220261,2.476312 63.247905,63.036888 0 0 0 -7.580286,10.031309 3.1078807,3.0975117 0 0 0 -0.715848,-0.187798 21.445698,21.374148 0 0 0 -1.20369,-6.285003 2.3578925,2.3500258 0 0 0 0.371045,-0.298633 2.312739,2.3050229 0 0 0 0,-3.254516 2.4493007,2.441129 0 0 0 -0.400729,-0.319212 c 1.397556,-2.986651 3.41388,-5.769341 5.862079,-8.159978 0.1685,-0.163548 0.338195,-0.329254 0.509999,-0.486216 z m 20.042232,1.388115 a 1.313856,1.3094725 0 0 0 -0.934603,0.382456 1.3116534,1.3072773 0 1 0 1.855655,0 1.313856,1.3094725 0 0 0 -0.921052,-0.382456 z m -21.061799,4.435112 a 1.3127547,1.3083749 0 0 0 -0.935248,0.382884 1.3116534,1.3072773 0 1 0 1.855654,0 1.3127547,1.3083749 0 0 0 -0.920406,-0.382884 z m -50.208721,0.04438 h 8.469074 l -2.245629,8.76046 h -8.469073 z m 40.080809,0.564464 a 17.450166,17.391946 0 0 1 2.037412,2.414786 c -0.04185,0.03952 -0.08358,0.07578 -0.124327,0.117481 a 2.312739,2.3050229 0 0 0 2.174001,3.864857 20.696812,20.62776 0 0 1 1.137655,5.965577 3.0913611,3.0810473 0 0 0 -1.667443,0.745402 C 63.17715,32.507687 62.783539,32.231704 62.378994,31.964613 62.134504,30.221577 61.51564,28.70804 60.522263,27.423812 a 10.846746,10.810558 0 0 0 -2.694968,-2.449943 1.3072482,1.3028868 0 1 0 -0.569366,-0.347941 13.685908,13.640247 0 0 0 -1.913947,-0.901257 v -0.24911 c 2.004374,-0.990062 3.557084,-2.253912 4.658389,-3.791326 z m 24.605116,5.124775 a 1.6772864,1.6716904 0 0 0 -1.163683,0.488574 1.6750838,1.6694951 0 1 0 2.369955,0 1.6772864,1.6716904 0 0 0 -1.170136,-0.488574 1.6772864,1.6716904 0 0 0 -0.03614,0 z m -6.42198,3.968403 a 1.3116534,1.3072773 0 0 0 -0.934389,0.38267 1.3116534,1.3072773 0 1 0 1.85458,0 1.3116534,1.3072773 0 0 0 -0.920191,-0.38267 z m 14.85298,0.251684 a 1.3149573,1.3105702 0 0 0 -0.935247,0.382456 1.3127547,1.3083749 0 1 0 1.856729,0 1.3149573,1.3105702 0 0 0 -0.921482,-0.382456 z m -30.561409,3.955326 c 0.187957,0.131716 0.374111,0.266324 0.558396,0.403894 a 3.083652,3.0733639 0 0 0 -0.485692,2.176608 l -0.176166,0.02744 a 13.734366,13.688543 0 0 0 0.125403,-1.850749 c 0,-0.256846 -0.0087,-0.509129 -0.02194,-0.757194 z m 14.910843,1.233978 c 0.90853,-0.002 1.797186,0.02225 2.665931,0.07311 0.342506,0.01975 0.679608,0.04395 1.014405,0.07139 a 1.9415995,1.9351217 0 0 0 0.152934,0.600482 c -3.429391,2.37521 -6.544741,4.707621 -9.458741,8.635891 a 1.4614308,1.456555 0 0 0 -0.489349,-0.07996 22.412644,22.337868 0 0 0 -3.369948,-6.390266 3.0649298,3.0547041 0 0 0 0.770913,-2.178967 c 3.083652,-0.48186 5.988265,-0.725644 8.713855,-0.73168 z m 4.279385,1.383827 a 1.9713347,1.9647577 0 0 0 1.380932,0.548815 18.007426,17.947347 0 0 1 0.191653,3.332336 19.272825,19.208524 0 0 1 -0.527421,3.798829 1.6519564,1.6464449 0 0 0 -1.711539,1.623506 21.596577,21.524523 0 0 1 -8.283874,-0.03409 1.4173786,1.4126497 0 0 0 -0.308451,-0.817649 c 2.840264,-3.823045 5.896418,-6.114896 9.2587,-8.451751 z m -8.936482,0.617632 a 1.313856,1.3094725 0 0 0 -0.934603,0.38224 1.3116534,1.3072773 0 1 0 1.855869,0 1.313856,1.3094725 0 0 0 -0.921266,-0.38224 z m -9.957555,0.107829 a 3.0935638,3.0832426 0 0 0 1.699278,1.632081 7.4525261,7.4276619 0 0 0 0.05636,1.288644 7.9844561,7.9578172 0 0 0 0.892013,2.714491 21.569045,21.497083 0 0 1 -3.950498,-3.19299 11.07802,11.04106 0 0 0 0.770913,-2.363119 h 0.04194 c 0.164095,-0.02305 0.330305,-0.04947 0.489994,-0.0791 z m 4.535137,1.330233 a 21.540411,21.468545 0 0 1 3.208194,6.097421 1.4834569,1.4785076 0 0 0 -0.236824,0.181151 h 0.0011 A 1.4845582,1.4796052 0 0 0 70.09159,44.173602 21.194601,21.123889 0 0 1 67.970503,43.34159 1.3579082,1.3533778 0 0 0 66.241326,41.824632 7.3357879,7.3113132 0 0 1 65.306293,39.1453 a 6.6507766,6.6285873 0 0 1 -0.05507,-0.987867 3.083652,3.0733639 0 0 0 2.057203,-0.499508 z m 11.969801,2.40814 a 1.3116534,1.3072773 0 0 0 -0.935678,0.383312 1.3127547,1.3083749 0 1 0 1.855654,0 1.3116534,1.3072773 0 0 0 -0.919976,-0.383312 z" overflow="visible"/>
</symbol>
</svg>